# xmcd CD database file
#
# Track frame offsets:
#	150
#	16402
#	37194
#	56650
#	75717
#	93839
#	113466
#	130821
#	149816
#	163920
#	178233
#	198671
#	216745
#	236270
#
# Disc length: 3327 seconds
#
# Revision: 0
# Processed by: cddbd v1.5.2PL0 Copyright (c) Steve Scherf et al.
# Submitted via: CDex 1.70beta2
#
DISCID=d00cfd0e
DTITLE=Pino Daniele - Ricomincio Da 30 CD 1
DYEAR=2008
DGENRE=Blues
TTITLE0=Quando
TTITLE1=Sara Non Piangere
TTITLE2=Amore Senza Fine
TTITLE3=Dubbi Non Ho
TTITLE4=Napule È [New Recording 2008]
TTITLE5=Quanno Chiove [New Recording 2008]
TTITLE6=A Testa in Giù [New Recording 2008]
TTITLE7=I Say I' Sto Ccà [New Recording 2008]
TTITLE8=Je So' Pazzo [New Recording 2008]
TTITLE9=Se Mi Vuoi
TTITLE10=Anima
TTITLE11=Anna Verrà
TTITLE12=Mareluna
TTITLE13=Saglie Saglie
EXTD=YEAR: 2008
EXTT0=
EXTT1=
EXTT2=
EXTT3=
EXTT4=
EXTT5=
EXTT6=
EXTT7=
EXTT8=
EXTT9=
EXTT10=
EXTT11=
EXTT12=
EXTT13=
PLAYORDER=
